<svg width="22" height="22" viewBox="0 0 22 22" fill="none" xmlns="http://www.w3.org/2000/svg">
<path fill-rule="evenodd" clip-rule="evenodd" d="M16.4056 0.250044C16.4519 0.250074 16.4989 0.250094 16.5465 0.250094H17.167C18.0386 0.250064 18.7673 0.250044 19.3462 0.327634C19.9578 0.409624 20.5134 0.590374 20.9605 1.03612C21.4079 1.48218 21.5896 2.03701 21.672 2.64789C21.7499 3.22551 21.7498 3.95241 21.7498 4.82101V5.44002C21.7498 5.4877 21.7498 5.53475 21.7499 5.58119C21.7504 6.63124 21.7508 7.36819 21.4707 8.04242C21.1906 8.71642 20.668 9.2369 19.9229 9.9791C19.89 10.0119 19.8566 10.0451 19.8228 10.0788L17.153 12.7406L17.2461 12.8843C17.6397 13.4923 17.9586 13.9848 18.1889 14.4095C18.4273 14.8494 18.5968 15.262 18.6646 15.7185C18.7737 16.4523 18.6751 17.2066 18.3858 17.8996C18.2785 18.1566 18.0929 18.4259 17.9026 18.6714C17.7031 18.9286 17.4593 19.2088 17.1974 19.4941C16.6762 20.0621 16.0504 20.686 15.495 21.2397L15.404 21.3305C14.684 22.0483 13.4361 21.8156 13.0522 20.8525C12.8245 20.2814 12.7324 20.0538 12.6171 19.8435C12.5102 19.6486 12.3875 19.4627 12.2503 19.2876C12.1042 19.1012 11.9335 18.9287 11.5102 18.5066L11.0054 18.064C10.9983 18.0578 10.9914 18.0515 10.9846 18.0451C10.8911 18.0572 10.7962 18.0634 10.6997 18.0634C10.0682 18.0634 9.5472 17.7998 9.0561 17.4262C8.59158 17.0729 8.0762 16.559 7.46002 15.9446L6.0134 14.5024C5.39726 13.8881 4.88183 13.3743 4.52735 12.911C4.15269 12.4215 3.88741 11.901 3.88741 11.2693C3.88741 11.1547 3.8962 11.0425 3.91329 10.9325L3.08287 10.1046C3.03445 10.0563 3.01506 10.037 2.99593 10.0185C2.62227 9.6559 2.18262 9.3675 1.70047 9.1689C1.67577 9.1587 1.6503 9.1486 1.58667 9.1234L1.20802 8.97334C0.194472 8.57173 -0.0783583 7.26365 0.695432 6.4922L0.702492 6.48516C1.25792 5.93141 1.88366 5.30756 2.4533 4.78791C2.73952 4.5268 3.02052 4.28373 3.27845 4.08494C3.52476 3.89509 3.79455 3.71029 4.05179 3.60356C4.74601 3.31552 5.50143 3.21738 6.2361 3.32595C6.693 3.39347 7.10622 3.56205 7.54733 3.79974C7.9732 4.02923 8.46709 4.34711 9.077 4.73965L9.2247 4.8347L11.8969 2.17043C11.9306 2.13686 11.9638 2.10371 11.9966 2.071C12.7414 1.32769 13.2632 0.806894 13.9386 0.527984C14.6138 0.249154 15.3517 0.249524 16.4056 0.250044ZM8.13735 5.91875C7.57734 5.55864 7.17425 5.30262 6.83578 5.12024C6.4767 4.92675 6.23621 4.84226 6.01681 4.80984C5.55867 4.74213 5.07732 4.80205 4.62665 4.98904C4.55933 5.01697 4.41759 5.10078 4.19416 5.27299C3.98234 5.43625 3.73539 5.6487 3.46422 5.89608C2.92148 6.39119 2.31755 6.9931 1.75448 7.55446C1.7513 7.55763 1.75029 7.55938 1.7502 7.55953C1.7501 7.5597 1.7502 7.55952 1.7502 7.55953C1.7501 7.55988 1.74939 7.56283 1.75033 7.56737C1.75127 7.57191 1.75297 7.5744 1.75343 7.57497C1.75371 7.57517 1.75614 7.57707 1.76059 7.57883L2.14432 7.73088C2.20135 7.75348 2.23668 7.76748 2.27188 7.78198C2.92982 8.05306 3.53008 8.44669 4.04048 8.94193C4.06779 8.96843 4.09469 8.99525 4.1381 9.0385L4.61586 9.5149C4.68125 9.4336 4.74953 9.353 4.82004 9.2725C5.14181 8.90528 5.55522 8.49312 6.03378 8.016L8.13735 5.91875ZM12.4544 17.3396L12.5352 17.4104L12.5868 17.4619C12.9774 17.8513 13.2195 18.0926 13.4309 18.3624C13.6184 18.6016 13.7861 18.8557 13.9322 19.1222C14.0919 19.4133 14.2156 19.7203 14.4087 20.2047L14.4289 20.1845C14.992 19.6231 15.5957 19.021 16.0923 18.4799C16.3404 18.2096 16.5535 17.9634 16.7172 17.7522C16.8899 17.5294 16.9738 17.3884 17.0016 17.3218C17.1888 16.8733 17.2487 16.3946 17.1809 15.9391C17.1486 15.7214 17.0641 15.4822 16.8702 15.1244C16.6869 14.7863 16.4295 14.3835 16.067 13.8233L13.9584 15.9256C13.4685 16.414 13.0465 16.8348 12.6707 17.1594C12.5989 17.2214 12.5269 17.2816 12.4544 17.3396ZM16.5465 1.75009C15.2947 1.75009 14.8771 1.7633 14.5112 1.9144C14.1455 2.06541 13.8413 2.35009 12.956 3.23268L7.10915 9.062C6.61071 9.5589 6.23286 9.9362 5.9482 10.2611C5.6622 10.5874 5.5162 10.8109 5.44522 10.9874C5.40383 11.0903 5.38741 11.1792 5.38741 11.2693C5.38741 11.4398 5.44582 11.643 5.71857 11.9994C6.00448 12.3731 6.44672 12.8162 7.10915 13.4767L7.26629 13.6333L8.79679 12.1074C9.0901 11.815 9.565 11.8157 9.8574 12.109C10.1499 12.4024 10.1492 12.8772 9.8559 13.1697L8.32855 14.6924L8.4825 14.8459C9.1449 15.5063 9.5894 15.9473 9.9643 16.2324C10.3217 16.5043 10.5267 16.5634 10.6997 16.5634C10.7845 16.5634 10.867 16.5491 10.9594 16.5151C11.1348 16.4505 11.3584 16.3107 11.6902 16.0241C12.0208 15.7387 12.4055 15.3557 12.9168 14.8459L18.7637 9.0166C19.6492 8.13374 19.9343 7.83068 20.0854 7.46692C20.2365 7.10341 20.2498 6.68861 20.2498 5.44002V4.87287C20.2498 3.93878 20.2482 3.31389 20.1854 2.84835C20.1256 2.40463 20.0229 2.21946 19.9014 2.09837C19.7797 1.97697 19.593 1.87414 19.1469 1.81434C18.6794 1.75167 18.0521 1.75009 17.1154 1.75009H16.5465ZM15.6635 6.32353C15.1978 5.85916 14.4417 5.85916 13.9759 6.32353C13.5114 6.78666 13.5114 7.53661 13.9759 7.99974C14.4417 8.46412 15.1978 8.46412 15.6635 7.99974C16.1281 7.53661 16.1281 6.78666 15.6635 6.32353ZM12.9168 5.26128C13.968 4.21324 15.6714 4.21324 16.7226 5.26128C17.7751 6.31056 17.7751 8.01271 16.7226 9.062C15.6714 10.11 13.968 10.11 12.9168 9.062C11.8644 8.01271 11.8644 6.31056 12.9168 5.26128Z" fill="#4D8AC5"/>
</svg>
